<?xml version="1.0" encoding="utf-8"?>
<!-- Generator: Adobe Illustrator 24.3.0, SVG Export Plug-In . SVG Version: 6.00 Build 0)  -->
<svg version="1.1" id="Layer_1" xmlns="http://www.w3.org/2000/svg" xmlns:xlink="http://www.w3.org/1999/xlink" x="0px" y="0px"
	 viewBox="0 0 110 110" style="enable-background:new 0 0 110 110;" xml:space="preserve">
<style type="text/css">
	.st0{fill:#FFFFFF;}
</style>
<g>
	<path class="st0" d="M50.6,101.5H36.1c-0.8,0-1.5-0.7-1.5-1.5v-4.1c-2-0.6-4-1.4-5.9-2.4l-2.9,2.9c-0.3,0.3-0.6,0.4-1,0.4
		s-0.8-0.2-1-0.4L13.6,86.2c-0.3-0.3-0.4-0.6-0.4-1s0.2-0.8,0.4-1l2.9-2.9c-1-1.9-1.9-3.9-2.5-5.9H9.9c-0.8,0-1.5-0.7-1.5-1.5V59.4
		c0-0.8,0.7-1.5,1.5-1.5H14c0.6-2.1,1.4-4,2.5-5.9l-2.9-2.9c-0.6-0.6-0.6-1.5,0-2.1l10.2-10.2c0.3-0.3,0.6-0.4,1-0.4s0.8,0.2,1,0.4
		l2.9,2.9c1.9-1,3.9-1.8,5.9-2.4v-4.1c0-0.8,0.7-1.5,1.5-1.5h14.5c0.8,0,1.5,0.7,1.5,1.5v4.2c2,0.6,4,1.4,5.9,2.4l3-3
		c0.3-0.3,0.6-0.4,1-0.4s0.8,0.2,1,0.4L73.2,47c0.6,0.6,0.6,1.5,0,2.1l-3,3c1,1.9,1.8,3.8,2.4,5.9h4.2c0.8,0,1.5,0.7,1.5,1.5V74
		c0,0.8-0.7,1.5-1.5,1.5h-4.2c-0.6,2-1.4,4-2.4,5.9l3,3c0.6,0.6,0.6,1.5,0,2.1l-10.3,9.9c-0.3,0.3-0.6,0.4-1,0.4s-0.8-0.2-1-0.4
		l-3-3c-1.9,1-3.8,1.8-5.9,2.4v4.2C52,100.9,51.4,101.5,50.6,101.5L50.6,101.5z M37.6,98.6h11.6v-3.8c0-0.7,0.4-1.2,1.1-1.4
		c2.5-0.6,4.9-1.7,7.2-3c0.6-0.3,1.3-0.2,1.8,0.2l2.7,2.7l8.2-8.2l-2.7-2.7c-0.5-0.5-0.6-1.2-0.2-1.8c1.3-2.2,2.3-4.7,3-7.2
		c0.2-0.6,0.7-1.1,1.4-1.1h3.9V60.9h-3.9c-0.7,0-1.2-0.4-1.4-1.1c-0.6-2.5-1.6-4.9-3-7.2c-0.3-0.6-0.2-1.3,0.2-1.8l2.7-2.7L62,39.9
		l-2.7,2.7c-0.5,0.5-1.2,0.6-1.8,0.2c-2.2-1.3-4.7-2.3-7.2-3c-0.6-0.2-1.1-0.7-1.1-1.4v-3.8H37.6v3.8c0,0.7-0.5,1.2-1.1,1.4
		c-2.5,0.6-5,1.6-7.2,3c-0.6,0.3-1.3,0.2-1.8-0.2l-2.7-2.7l-8.2,8.2l2.7,2.7c0.5,0.5,0.6,1.2,0.2,1.8c-1.3,2.3-2.4,4.7-3,7.2
		c-0.2,0.6-0.7,1.1-1.4,1.1h-3.8v11.6h3.8c0.7,0,1.2,0.4,1.4,1.1c0.6,2.5,1.7,5,3,7.2c0.3,0.6,0.2,1.3-0.2,1.8l-2.7,2.7l8.2,8.2
		l2.7-2.7c0.5-0.5,1.2-0.6,1.8-0.2c2.3,1.3,4.7,2.3,7.2,3c0.6,0.2,1.1,0.7,1.1,1.4V98.6z"/>
	<path class="st0" d="M43.3,91.4c-13.6,0-24.7-11.1-24.7-24.7S29.7,42,43.3,42S68,53,68,66.6S57,91.4,43.3,91.4z M43.3,44.8
		c-12,0-21.8,9.8-21.8,21.8s9.8,21.8,21.8,21.8s21.8-9.8,21.8-21.8S55.4,44.8,43.3,44.8z"/>
	<path class="st0" d="M85.2,73.6c-0.4,0-0.8-0.2-1-0.4l-3-3c-1.2,0.7-2.5,1.3-3.9,1.8c-0.8,0.3-1.6-0.1-1.9-0.9s0.1-1.6,0.9-1.9
		c1.5-0.6,3-1.3,4.4-2.1c0.6-0.3,1.3-0.2,1.8,0.2l2.7,2.7l8.2-8.2l-2.7-2.7c-0.5-0.5-0.6-1.2-0.2-1.8c1.3-2.2,2.3-4.7,3-7.2
		c0.2-0.6,0.7-1.1,1.4-1.1h3.9V37.6h-3.9c-0.7,0-1.2-0.4-1.4-1.1c-0.6-2.5-1.6-4.9-3-7.2c-0.3-0.6-0.2-1.3,0.2-1.8l2.7-2.7l-8.2-8.2
		l-2.7,2.7c-0.5,0.5-1.2,0.6-1.8,0.2c-2.2-1.3-4.7-2.3-7.2-3c-0.6-0.2-1.1-0.7-1.1-1.4v-3.8H60.9v3.8c0,0.7-0.5,1.2-1.1,1.4
		c-2.5,0.6-5,1.6-7.2,3c-0.6,0.3-1.3,0.2-1.8-0.2l-2.7-2.7l-8.2,8.2l2.7,2.7c0.5,0.5,0.6,1.2,0.2,1.8c-0.8,1.4-1.6,2.9-2.1,4.4
		c-0.3,0.8-1.1,1.1-1.9,0.9c-0.8-0.3-1.1-1.1-0.9-1.9c0.5-1.3,1.1-2.6,1.8-3.9l-2.9-2.9c-0.6-0.6-0.6-1.5,0-2.1L47,13.6
		c0.3-0.3,0.6-0.4,1-0.4s0.8,0.2,1,0.4l2.9,2.9c1.9-1,3.9-1.8,5.9-2.4V9.9c0-0.8,0.7-1.5,1.5-1.5h14.5c0.8,0,1.5,0.7,1.5,1.5v4.2
		c2,0.6,4,1.4,5.9,2.4l3-3c0.3-0.3,0.6-0.4,1-0.4s0.8,0.2,1,0.4l10.2,10.2c0.6,0.6,0.6,1.5,0,2.1l-3,3c1,1.9,1.8,3.8,2.4,5.9h4.2
		c0.8,0,1.5,0.7,1.5,1.5v14.5c0,0.8-0.7,1.5-1.5,1.5h-4.2c-0.6,2-1.4,4-2.4,5.9l3,3c0.6,0.6,0.6,1.5,0,2.1l-10.2,10
		C85.9,73.4,85.6,73.6,85.2,73.6L85.2,73.6z"/>
	<path class="st0" d="M76.8,65.7c-0.5,0-1.1-0.3-1.3-0.8c-0.4-0.7-0.1-1.6,0.7-1.9c7.5-3.7,12.2-11.2,12.2-19.6
		c0-12-9.8-21.8-21.8-21.8c-8.4,0-15.9,4.7-19.6,12.3c-0.4,0.7-1.2,1-1.9,0.7c-0.7-0.4-1-1.2-0.7-1.9c2-4.1,5.1-7.6,9-10
		c4-2.5,8.6-3.9,13.3-3.9c13.6,0,24.7,11.1,24.7,24.7c0,4.7-1.3,9.3-3.9,13.3c-2.5,3.9-5.9,6.9-10,9C77.3,65.7,77,65.7,76.8,65.7
		L76.8,65.7z"/>
	<path class="st0" d="M43.4,55c-0.8,0-1.5-0.7-1.5-1.5v-4.4c0-0.8,0.7-1.5,1.5-1.5s1.5,0.7,1.5,1.5v4.4C44.8,54.3,44.2,55,43.4,55z"
		/>
	<path class="st0" d="M43.4,85.5c-0.8,0-1.5-0.7-1.5-1.5v-4.4c0-0.8,0.7-1.5,1.5-1.5s1.5,0.7,1.5,1.5V84
		C44.8,84.9,44.2,85.5,43.4,85.5z"/>
	<path class="st0" d="M60.8,68.1h-4.4c-0.8,0-1.5-0.7-1.5-1.5s0.7-1.5,1.5-1.5h4.4c0.8,0,1.5,0.7,1.5,1.5S61.6,68.1,60.8,68.1z"/>
	<path class="st0" d="M30.3,68.1h-4.4c-0.8,0-1.5-0.7-1.5-1.5s0.7-1.5,1.5-1.5h4.4c0.8,0,1.5,0.7,1.5,1.5
		C31.7,67.4,31.1,68.1,30.3,68.1z"/>
	<path class="st0" d="M42.3,75.3c-0.6,0-1.1-0.3-1.3-0.9L34.8,60c-0.2-0.5-0.1-1.2,0.3-1.6c0.4-0.4,1.1-0.5,1.6-0.3l14.4,6.2
		c0.6,0.2,0.9,0.8,0.9,1.4s-0.4,1.1-1,1.3l-5.5,1.8l-1.8,5.5C43.5,74.9,43,75.3,42.3,75.3L42.3,75.3L42.3,75.3z M38.9,62.2l3.2,7.5
		l0.8-2.5c0.1-0.4,0.5-0.8,0.9-0.9l2.5-0.8L38.9,62.2z"/>
</g>
</svg>
